<?xml version="1.0" standalone="no"?>
<!DOCTYPE svg PUBLIC "-//W3C//DTD SVG 20010904//EN"
    "http://www.w3.org/TR/2001/REC-SVG-20010904/DTD/svg10.dtd">
<svg version="1.0" xmlns="http://www.w3.org/2000/svg"
    width="2068.000000pt" height="387.000000pt" viewBox="0 0 2068.000000 387.000000"
    preserveAspectRatio="xMidYMid meet">

    <g transform="translate(0.000000,387.000000) scale(0.100000,-0.100000)"
        fill="#000000" stroke="none">
        <path d="M13285 3333 c-239 -22 -481 -108 -686 -244 -125 -83 -315 -273 -398
-398 -377 -568 -323 -1291 137 -1809 l38 -42 124 29 c69 16 145 32 170 36 89
13 80 -38 80 454 0 494 -1 503 -70 565 -71 64 -161 58 -223 -15 -19 -22 -40
-60 -46 -84 -6 -26 -11 -144 -11 -287 l-1 -243 -31 60 c-155 301 -161 700 -15
1009 323 680 1161 896 1762 452 434 -321 592 -896 382 -1396 l-32 -75 -5 341
-5 340 -30 59 c-37 72 -81 105 -140 105 -60 0 -104 -33 -140 -105 l-30 -60 -3
-547 c-2 -517 -2 -547 15 -552 10 -2 45 -10 78 -16 33 -7 104 -23 157 -36 53
-13 98 -24 101 -24 2 0 33 35 69 78 159 189 267 409 320 655 31 146 32 438 0
579 -94 426 -342 770 -707 981 -250 145 -572 216 -860 190z"/>
        <path d="M13100 2449 c-47 -14 -85 -53 -107 -108 -16 -42 -18 -101 -21 -715
l-3 -669 63 7 c35 3 104 9 153 12 50 3 100 7 113 10 l22 4 0 630 c0 411 -4
646 -11 679 -25 117 -111 178 -209 150z"/>
        <path d="M13635 2376 c-74 -33 -95 -88 -95 -253 0 -156 9 -191 59 -236 85 -76
228 -52 275 47 13 27 16 67 16 189 0 144 -2 156 -23 188 -37 55 -81 79 -146
79 -31 -1 -69 -7 -86 -14z"/>
        <path d="M13650 1728 c-49 -25 -84 -70 -100 -127 -11 -42 -14 -611 -2 -611 30
0 284 -21 310 -25 l32 -6 0 318 c0 351 -3 366 -66 425 -56 52 -107 60 -174 26z"/>
    </g>
</svg>
